#!OML:ASF E:\motion texture\Top Level 1\Subject 1\Session 1\male.ASF
:FULLY-SPECIFIED
:DEGREES
113
root 17.7552 17.6889 5.42437 132.331 -74.6069 -134.075
lowerback 3.45726 4.67708 10.9389
upperback -0.693831 6.66028 3.20817
thorax -1.80691 3.15044 -3.01073
lowerneck -17.5532 -5.19321 -7.6018
upperneck 14.223 -6.84241 8.96807
head 7.85857 -2.85845 3.38956
rclavicle -4.88162e-014 -3.35884e-014
rhumerus -4.23081 18.7851 -85.7895
rradius 76.9649
rwrist -2.94574
rhand -9.1598 -8.69588
rfingers 7.12502
rthumb 16.7926 -37.9897
lclavicle -4.88162e-014 -3.35884e-014
lhumerus -56.2954 7.83182 73.2931
lradius 31.936
lwrist -19.4135
lhand -6.76993 7.63109
lfingers 7.12502
lthumb 19.0921 36.714
rfemur 10.7321 7.84907 37.6154
rtibia 22.6268
rfoot -16.0722 -4.91054
rtoes -0.497411
lfemur -81.9671 10.8846 -6.29743
ltibia 88.363
lfoot 199.01 246.302
ltoes 14.716
114
root 17.6058 17.6734 5.42837 133.018 -74.4338 -134.292
lowerback 3.11784 4.71004 10.9883
upperback -0.834167 6.66838 3.18327
thorax -1.75421 3.15175 -3.03801
lowerneck -17.5707 -5.16351 -7.60801
upperneck 14.19 -6.80656 9.02043
head 7.84985 -2.83691 3.41248
rclavicle 8.26587e-015 6.28657e-015
rhumerus -4.73991 18.8556 -85.8847
rradius 76.7472
rwrist -2.71971
rhand -9.11056 -8.71372
rfingers 7.12502
rthumb 16.84 -38.0035
lclavicle 8.26587e-015 6.28657e-015
lhumerus -56.093 7.5728 73.8581
lradius 32.4316
lwrist -19.0576
lhand -6.80433 7.68483
lfingers 7.12502
lthumb 19.059 36.771
rfemur 10.8138 7.98381 37.5847
rtibia 22.5383
rfoot -16.0992 -4.8066
rtoes -0.983548
lfemur -80.3324 11.1364 -6.01446
ltibia 86.8335
lfoot 202.948 230.022
ltoes 14.3433
115
root 17.4543 17.6573 5.43227 133.726 -74.2755 -134.52
lowerback 2.76901 4.73657 11.0166
upperback -0.984113 6.6663 3.15512
thorax -1.7095 3.14751 -3.0569
lowerneck -17.5858 -5.13 -7.60677
upperneck 14.1626 -6.76571 9.06101
head 7.84136 -2.81368 3.43093
rclavicle 3.06951e-014 -4.12478e-015
rhumerus -5.27505 18.928 -85.9857
rradius 76.512
rwrist -2.50743
rhand -9.06248 -8.75524
rfingers 7.12502
rthumb 16.8863 -38.0411
lclavicle 3.06951e-014 -4.12478e-015
lhumerus -55.9337 7.27302 74.4389
lradius 32.9988
lwrist -18.6228
lhand -6.86258 7.73398
lfingers 7.12502
lthumb 19.003 36.8257
rfemur 10.9019 8.11632 37.53
rtibia 22.4284
rfoot -16.1102 -4.69335
rtoes -1.45321
lfemur -78.6111 11.3794 -5.75235
ltibia 84.4866
lfoot 205.124 213.69
ltoes 13.9683
116
root 17.2994 17.6407 5.43646 134.525 -74.1257 -134.838
lowerback 2.40743 4.76449 11.0179
upperback -1.14219 6.66384 3.12043
thorax -1.66832 3.14302 -3.06734
lowerneck -17.5931 -5.09465 -7.58819
upperneck 14.1462 -6.72382 9.07869
head 7.83354 -2.79124 3.43913
rclavicle -2.17995e-014 -4.54471e-014
rhumerus -5.84856 18.9995 -86.0937
rradius 76.2511
rwrist -2.30454
rhand -9.06606 -8.8181
rfingers 7.12502
rthumb 16.8828 -38.1042
lclavicle -2.17995e-014 -4.54471e-014
lhumerus -55.8186 6.94298 75.022
lradius 33.6271
lwrist -18.1325
lhand -6.91565 7.81355
lfingers 7.12502
lthumb 18.9519 36.9103
rfemur 11.0046 8.2492 37.4318
rtibia 22.3023
rfoot -16.0995 -4.5464
rtoes -1.92932
lfemur -76.7925 11.6219 -5.51985
ltibia 81.7404
lfoot 206.774 197.315
ltoes 13.6365
117
root 17.1405 17.6237 5.44095 135.414 -73.9875 -135.253
lowerback 2.03965 4.7935 10.9855
upperback -1.31085 6.66191 3.07983
thorax -1.63759 3.13841 -3.06594
lowerneck -17.6009 -5.05846 -7.5564
upperneck 14.1542 -6.68247 9.07714
head 7.83268 -2.76988 3.43875
rclavicle 4.45014e-014 2.54693e-014
rhumerus -6.47685 19.0654 -86.2092
rradius 75.9649
rwrist -2.12164
rhand -9.10601 -8.89719
rfingers 7.12502
rthumb 16.8444 -38.1866
lclavicle 4.45014e-014 2.54693e-014
lhumerus -55.7522 6.59375 75.5974
lradius 34.3086
lwrist -17.6039
lhand -6.96304 7.87111
lfingers 7.12502
lthumb 18.9064 36.9723
rfemur 11.1262 8.37819 37.2835
rtibia 22.1631
rfoot -16.0601 -4.36189
rtoes -2.43915
lfemur -74.8747 11.8511 -5.31886
ltibia 79.1365
lfoot 208.222 180.888
ltoes 13.3834
118
root 16.9766 17.6068 5.44606 136.392 -73.8522 -135.769
lowerback 1.67979 4.82574 10.9286
upperback -1.49741 6.66642 3.03276
thorax -1.63107 3.13552 -3.0598
lowerneck -17.5956 -5.0208 -7.51252
upperneck 14.189 -6.6428 9.06139
head 7.83759 -2.75014 3.43172
rclavicle -2.40871e-015 -4.14963e-014
rhumerus -7.18337 19.1118 -86.3416
rradius 75.651
rwrist -1.96397
rhand -9.1634 -8.98022
rfingers 7.12502
rthumb 16.7891 -38.2743
lclavicle -2.40871e-015 -4.14963e-014
lhumerus -55.7367 6.23092 76.152
lradius 35.0233
lwrist -17.076
lhand -7.0116 7.96369
lfingers 7.12502
lthumb 18.8597 37.0694
rfemur 11.2739 8.50671 37.0875
rtibia 22.0164
rfoot -15.9876 -4.12556
rtoes -2.96019
lfemur -72.8496 12.0591 -5.14029
ltibia 76.7827
lfoot 208.663 179.967
ltoes 13.222
119
root 16.8072 17.5899 5.45196 137.429 -73.7199 -136.363
lowerback 1.31791 4.85911 10.8561
upperback -1.69214 6.67251 2.9805
thorax -1.63278 3.13292 -3.0508
lowerneck -17.5873 -4.98198 -7.46379
upperneck 14.249 -6.60448 9.04167
head 7.85013 -2.73106 3.42257
rclavicle 8.97792e-015 -5.46658e-014
rhumerus -7.9577 19.1337 -86.4874
rradius 75.3072
rwrist -1.83415
rhand -9.2369 -9.07412
rfingers 7.12502
rthumb 16.7184 -38.3742
lclavicle 8.97792e-015 -5.46658e-014
lhumerus -55.7543 5.87449 76.6791
lradius 35.759
lwrist -16.5706
lhand -7.05162 8.03555
lfingers 7.12502
lthumb 18.8212 37.145
rfemur 11.4494 8.62374 36.8433
rtibia 21.871
rfoot -15.8786 -3.82913
rtoes -3.48943
lfemur -70.7144 12.2279 -4.97429
ltibia 74.3981
lfoot 209.046 179.329
ltoes 13.1415
120
root 16.6318 17.573 5.45865 138.496 -73.5922 -137.011
lowerback 0.95215 4.89001 10.7702
upperback -1.88974 6.67472 2.92666
thorax -1.63696 3.12827 -3.03604
lowerneck -17.5803 -4.94323 -7.41433
upperneck 14.3356 -6.56826 9.01961
head 7.8718 -2.7129 3.4124
rclavicle 4.83916e-015 3.89618e-014
rhumerus -8.80106 19.1362 -86.641
rradius 74.9384
rwrist -1.74353
rhand -9.31125 -9.18002
rfingers 7.12502
rthumb 16.6468 -38.4862
lclavicle 4.83916e-015 3.89618e-014
lhumerus -55.794 5.54431 77.1741
lradius 36.501
lwrist -16.1085
lhand -7.0879 8.07341
lfingers 7.12502
lthumb 18.7863 37.1862
rfemur 11.6467 8.72435 36.5554
rtibia 21.7513
rfoot -15.7275 -3.47488
rtoes -4.04213
lfemur -68.4583 12.329 -4.80569
ltibia 71.9884
lfoot 209.306 178.848
ltoes 12.9564
121
root 16.4505 17.5565 5.46605 139.496 -73.4801 -137.62
lowerback 0.579793 4.91166 10.6834
upperback -2.08242 6.66315 2.87538
thorax -1.63437 3.11711 -3.01745
lowerneck -17.5749 -4.90338 -7.37208
upperneck 14.4329 -6.53176 9.00866
head 7.89798 -2.6939 3.40724
rclavicle 2.48885e-014 5.5113e-014
rhumerus -9.7101 19.1043 -86.7981
rradius 74.5516
rwrist -1.68657
rhand -9.36898 -9.32441
rfingers 7.12502
rthumb 16.5912 -38.6352
lclavicle 2.48885e-014 5.5113e-014
lhumerus -55.8357 5.23863 77.6458
lradius 37.2427
lwrist -15.6809
lhand -7.13336 8.12283
lfingers 7.12502
lthumb 18.7426 37.2399
rfemur 11.8703 8.7953 36.2415
rtibia 21.6551
rfoot -15.5228 -3.07563
rtoes -4.60965
lfemur -66.0923 12.3223 -4.61882
ltibia 69.5768
lfoot 209.325 178.405
ltoes 12.3207
122
root 16.2631 17.5402 5.47419 140.433 -73.3776 -138.196
lowerback 0.19126 4.92679 10.5983
upperback -2.26631 6.6398 2.8288
thorax -1.61526 3.10093 -2.99313
lowerneck -17.5699 -4.86606 -7.33457
upperneck 14.5416 -6.49995 9.00453
head 7.92884 -2.67668 3.40463
rclavicle 2.11209e-014 1.14798e-014
rhumerus -10.6851 19.0433 -86.9526
rradius 74.1477
rwrist -1.64428
rhand -9.42887 -9.48987
rfingers 7.12502
rthumb 16.5336 -38.8055
lclavicle 2.11209e-014 1.14798e-014
lhumerus -55.8653 4.96987 78.0913
lradius 37.9644
lwrist -15.2989
lhand -7.18175 8.13189
lfingers 7.12502
lthumb 18.696 37.2534
rfemur 12.0936 8.83252 35.9024
rtibia 21.6296
rfoot -15.2528 -2.63115
rtoes -5.25179
lfemur -63.5977 12.1871 -4.39507
ltibia 67.1395
lfoot 209.037 177.948
ltoes 10.9922
123
root 16.0705 17.524 5.48278 141.258 -73.3017 -138.684
lowerback -0.209776 4.93011 10.5095
upperback -2.4458 6.59854 2.78808
thorax -1.58778 3.07625 -2.95994
lowerneck -17.5577 -4.83345 -7.30236
upperneck 14.6558 -6.47579 9.00747
head 7.96146 -2.66294 3.40442
rclavicle -7.65942e-015 -8.34896e-015
rhumerus -11.7379 18.9468 -87.1014
rradius 73.7361
rwrist -1.60176
rhand -9.43472 -9.65653
rfingers 7.12502
rthumb 16.5279 -38.9726
lclavicle -7.65942e-015 -8.34896e-015
lhumerus -55.8693 4.7387 78.5133
lradius 38.6472
lwrist -14.9564
lhand -7.24709 8.11741
lfingers 7.12502
lthumb 18.6332 37.245
rfemur 12.2897 8.82519 35.5441
rtibia 21.7079
rfoot -14.9056 -2.15472
rtoes -5.95507
lfemur -60.9984 11.8884 -4.14365
ltibia 64.6943
lfoot 208.484 177.434
ltoes 9.01946
124
root 15.8718 17.5083 5.49222 141.979 -73.2417 -139.105
lowerback -0.623722 4.92814 10.4301
upperback -2.61484 6.5476 2.75232
thorax -1.54283 3.04752 -2.92545
lowerneck -17.5363 -4.80892 -7.27416
upperneck 14.7712 -6.46399 9.01714
head 7.99439 -2.65497 3.40565
rclavicle 1.93194e-015 -5.06901e-015
rhumerus -12.8732 18.8016 -87.2434
rradius 73.3147
rwrist -1.52697
rhand -9.43599 -9.80763
rfingers 7.12502
rthumb 16.5267 -39.1238
lclavicle 1.93194e-015 -5.06901e-015
lhumerus -55.8335 4.54119 78.9148
lradius 39.2754
lwrist -14.65
lhand -7.31827 8.15431
lfingers 7.12502
lthumb 18.5647 37.2884
rfemur 12.4511 8.76693 35.1633
rtibia 21.9198
rfoot -14.4589 -1.63234
rtoes -6.70111
lfemur -58.2689 11.4163 -3.86345
ltibia 62.2149
lfoot 207.736 176.872
ltoes 6.55451
125
root 15.6664 17.4934 5.50268 142.623 -73.1963 -139.497
lowerback -1.05353 4.92385 10.3582
upperback -2.76361 6.48995 2.7198
thorax -1.46813 3.0172 -2.88964
lowerneck -17.5054 -4.79242 -7.25313
upperneck 14.8849 -6.464 9.03636
head 8.02676 -2.65245 3.40985
rclavicle 4.12168e-014 -5.46658e-015
rhumerus -14.0908 18.6045 -87.3736
rradius 72.8892
rwrist -1.41544
rhand -9.40752 -9.95626
rfingers 7.12502
rthumb 16.5541 -39.2702
lclavicle 4.12168e-014 -5.46658e-015
lhumerus -55.7463 4.37714 79.3028
lradius 39.8437
lwrist -14.3661
lhand -7.39364 8.18777
lfingers 7.12502
lthumb 18.4922 37.3288
rfemur 12.5713 8.65907 34.7491
rtibia 22.3023
rfoot -13.9017 -1.06676
rtoes -7.44472
lfemur -55.3795 10.7611 -3.57333
ltibia 59.6728
lfoot 206.589 176.333
ltoes 2.93657
126
root 15.4537 17.4796 5.51478 143.219 -73.1508 -139.901
lowerback -1.47095 4.92085 10.301
upperback -2.90342 6.43505 2.69111
thorax -1.38963 2.98821 -2.85883
lowerneck -17.4522 -4.78292 -7.24161
upperneck 15.0053 -6.47483 9.0618
head 8.05898 -2.65567 3.41662
rclavicle -6.03808e-015 -4.7112e-014
rhumerus -15.4151 18.3537 -87.4955
rradius 72.4601
rwrist -1.2812
rhand -9.34484 -10.0793
rfingers 7.12502
rthumb 16.6145 -39.3881
lclavicle -6.03808e-015 -4.7112e-014
lhumerus -55.6304 4.24604 79.6786
lradius 40.3523
lwrist -14.1061
lhand -7.50241 8.26582
lfingers 7.12502
lthumb 18.3876 37.4168
rfemur 12.6271 8.493 34.2881
rtibia 22.9028
rfoot -13.2099 -0.445021
rtoes -8.17725
lfemur -52.3164 9.9476 -3.30789
ltibia 57.0998
lfoot 204.764 175.783
ltoes -1.0795
